<?xml version="1.0" standalone="no"?>
<!DOCTYPE svg PUBLIC "-//W3C//DTD SVG 20010904//EN"
 "http://www.w3.org/TR/2001/REC-SVG-20010904/DTD/svg10.dtd">
<svg version="1.0" xmlns="http://www.w3.org/2000/svg"
 width="886.000000pt" height="192.000000pt" viewBox="0 0 886.000000 192.000000"
 preserveAspectRatio="xMidYMid meet">

<g transform="translate(0.000000,192.000000) scale(0.100000,-0.100000)"
fill="#000000" stroke="none">
<path d="M4612 1875 c-29 -8 -65 -21 -81 -29 -49 -26 -138 -114 -154 -154 -65
-164 -35 -307 89 -422 25 -23 44 -43 42 -44 -2 -1 -25 -11 -51 -20 -68 -25
-148 -108 -178 -183 -24 -57 -24 -64 -24 -398 0 -304 2 -346 18 -393 29 -83
84 -144 168 -186 l72 -36 181 0 c172 0 184 1 234 25 50 23 65 25 203 25 l149
0 68 34 c80 40 92 53 129 131 l28 60 0 305 c0 299 0 306 -24 357 -28 64 -95
127 -150 144 -23 7 -41 14 -41 15 0 2 22 24 49 49 66 61 95 129 95 220 0 50
-6 83 -21 116 -61 136 -226 223 -355 186 -25 -7 -29 -3 -47 32 -28 53 -115
127 -180 151 -72 28 -154 33 -219 15z m210 -134 c56 -25 128 -86 128 -109 0
-5 -17 -25 -39 -46 -65 -64 -86 -117 -86 -221 0 -49 -4 -96 -9 -104 -7 -10
-28 -12 -95 -9 -75 5 -92 9 -131 36 -69 46 -88 72 -105 141 -39 149 15 252
165 319 62 28 98 27 172 -7z m384 -199 c70 -36 114 -117 114 -209 0 -44 -5
-63 -25 -89 -14 -18 -25 -36 -25 -41 0 -8 -17 -21 -79 -55 -57 -32 -141 -22
-211 26 -84 57 -85 61 -35 107 55 50 96 141 103 227 l5 65 57 -6 c31 -2 74
-14 96 -25z m-246 -142 c-18 -35 -23 -39 -40 -30 -18 10 -26 39 -20 80 1 8 18
32 38 53 l37 38 3 -50 c2 -35 -3 -62 -18 -91z m-130 -374 c0 -3 -13 -24 -28
-48 -54 -81 -54 -84 -50 -395 4 -272 5 -291 27 -347 15 -36 38 -71 62 -93 21
-20 39 -39 39 -44 0 -10 -209 -12 -287 -3 -46 6 -60 14 -107 58 -90 85 -96
111 -96 410 l0 251 29 60 c31 66 65 102 126 133 34 18 59 21 163 22 67 0 122
-2 122 -4z m193 -104 c41 -45 47 -83 47 -302 l0 -211 -31 -39 c-30 -36 -108
-80 -144 -80 -9 0 -24 -13 -33 -30 -17 -30 -32 -39 -32 -19 0 6 -7 26 -16 45
-23 48 -16 470 9 524 21 47 76 98 123 115 51 19 58 18 77 -3z m242 -12 c58
-33 64 -39 94 -93 20 -35 21 -52 21 -291 l0 -253 -29 -39 c-60 -82 -106 -104
-220 -104 l-81 0 31 44 c17 24 35 63 40 87 4 24 8 187 9 362 l0 317 41 0 c28
0 59 -10 94 -30z m-235 -709 c-5 -11 -15 -23 -21 -27 -6 -3 -3 5 6 20 20 30
30 35 15 7z"/>
<path d="M3138 1129 c-40 -30 -53 -77 -33 -127 13 -32 25 -43 60 -56 38 -15
47 -15 78 -3 73 31 90 110 36 172 -26 30 -37 35 -73 35 -25 -1 -51 -8 -68 -21z"/>
<path d="M0 1081 l0 -59 59 -4 c97 -7 91 17 91 -368 0 -390 5 -370 -93 -370
l-57 0 0 -60 0 -60 270 0 270 0 0 60 0 60 -63 0 c-105 0 -107 3 -107 181 l0
149 45 0 c71 0 102 -21 120 -82 8 -28 15 -64 15 -80 0 -27 1 -28 55 -28 l55 0
0 245 0 245 -55 0 c-54 0 -55 -1 -55 -28 0 -16 -7 -51 -15 -79 -17 -58 -41
-73 -115 -73 l-50 0 0 146 0 146 138 -4 c133 -3 139 -4 184 -33 53 -34 66 -58
94 -178 l18 -77 58 0 58 0 0 205 0 205 -460 0 -460 0 0 -59z"/>
<path d="M980 1085 l0 -55 48 0 c85 0 82 14 82 -386 0 -259 -3 -353 -12 -362
-7 -7 -36 -12 -65 -12 l-53 0 0 -55 0 -55 220 0 220 0 0 55 0 55 -53 0 c-29 0
-58 5 -65 12 -9 9 -12 119 -12 435 l0 423 -155 0 -155 0 0 -55z"/>
<path d="M6110 898 c0 -48 -3 -59 -12 -50 -13 13 -75 16 -103 6 -26 -10 -45
-60 -45 -119 0 -46 4 -60 25 -80 29 -30 89 -34 117 -8 17 15 18 15 18 0 0 -10
8 -17 20 -17 19 0 20 7 20 165 0 158 -1 165 -20 165 -18 0 -20 -7 -20 -62z
m-18 -85 c12 -11 18 -30 18 -62 0 -80 -44 -113 -99 -75 -21 15 -23 23 -19 76
3 37 10 63 19 69 22 14 61 11 81 -8z"/>
<path d="M6650 925 c0 -31 3 -35 25 -35 22 0 25 4 25 35 0 31 -3 35 -25 35
-22 0 -25 -4 -25 -35z"/>
<path d="M7040 925 c0 -30 3 -35 24 -35 21 0 24 5 24 35 0 30 -3 35 -24 35
-21 0 -24 -5 -24 -35z"/>
<path d="M8020 925 c0 -28 4 -35 20 -35 16 0 20 7 20 35 0 28 -4 35 -20 35
-16 0 -20 -7 -20 -35z"/>
<path d="M7398 898 c-2 -13 -13 -27 -25 -33 -28 -12 -30 -35 -3 -35 18 0 20
-8 22 -97 l3 -98 43 -3 c33 -2 42 0 42 12 0 10 -9 16 -25 16 -25 0 -25 1 -25
85 0 84 0 85 25 85 16 0 25 6 25 15 0 9 -9 15 -25 15 -21 0 -25 5 -25 30 0 36
-27 42 -32 8z"/>
<path d="M7910 890 c-7 -16 -19 -30 -26 -30 -8 0 -14 -7 -14 -15 0 -8 7 -15
15 -15 12 0 15 -16 15 -84 0 -109 3 -116 51 -116 43 0 57 26 17 32 -21 3 -23
9 -26 86 -3 82 -3 82 23 82 16 0 25 6 25 15 0 9 -9 15 -25 15 -21 0 -25 5 -25
30 0 17 -4 30 -9 30 -5 0 -14 -13 -21 -30z"/>
<path d="M1691 851 c-68 -24 -95 -44 -154 -117 -58 -71 -71 -113 -70 -229 0
-125 25 -194 94 -258 81 -76 137 -100 245 -105 51 -2 107 0 125 6 19 6 54 16
78 22 55 14 143 95 179 165 24 46 27 60 27 170 0 107 -3 125 -24 165 -42 81
-88 127 -159 162 -61 30 -75 33 -177 36 -88 2 -121 -1 -164 -17z m219 -102
c43 -18 51 -27 76 -82 26 -55 29 -73 29 -162 0 -89 -3 -107 -28 -161 -22 -47
-36 -65 -63 -77 -48 -23 -115 -21 -168 5 -65 31 -81 77 -81 233 0 177 23 225
125 256 41 12 59 10 110 -12z"/>
<path d="M2729 861 c-46 -15 -74 -32 -106 -69 l-33 -37 0 48 0 47 -160 0 -160
0 0 -55 0 -55 58 0 c80 0 82 -5 82 -235 0 -230 -2 -235 -82 -235 l-58 0 0 -55
0 -55 235 0 235 0 0 55 0 55 -63 0 c-36 0 -68 5 -75 12 -8 8 -12 62 -12 175 0
155 1 166 25 213 35 68 93 110 154 110 l46 0 -32 -20 c-63 -38 -71 -94 -19
-146 77 -77 186 -21 186 96 0 114 -105 186 -221 151z"/>
<path d="M3690 861 c-111 -34 -193 -144 -175 -234 18 -85 101 -148 240 -181
124 -29 184 -56 201 -88 14 -27 14 -32 -1 -55 -28 -43 -78 -57 -152 -43 -52
10 -72 20 -113 57 -27 24 -55 60 -62 79 -12 33 -14 34 -65 34 l-53 0 0 -135 0
-135 50 0 c43 0 52 3 61 24 l11 24 67 -31 c55 -26 81 -32 158 -35 84 -4 98 -2
145 21 84 41 123 83 137 145 15 69 0 128 -45 180 -35 41 -83 63 -287 129 -42
14 -87 33 -99 43 -19 15 -20 20 -9 47 7 17 24 35 37 42 40 18 120 13 165 -9
38 -20 92 -82 104 -121 5 -15 16 -19 56 -19 l49 0 0 125 0 125 -45 0 c-38 0
-47 -4 -57 -24 l-11 -25 -46 23 c-79 40 -196 56 -261 37z"/>
<path d="M5707 853 c-4 -3 -7 -19 -7 -35 0 -21 5 -28 19 -28 10 0 21 9 24 21
5 17 12 20 49 17 35 -2 44 -7 46 -24 3 -19 -4 -23 -59 -33 -35 -6 -70 -17 -78
-26 -22 -21 -19 -84 4 -101 23 -17 88 -18 118 -3 16 9 22 9 25 0 2 -6 13 -11
24 -11 19 0 20 5 16 99 -5 126 -9 131 -103 131 -39 0 -75 -3 -78 -7z m133
-137 c0 -30 -4 -36 -35 -46 -49 -16 -75 -6 -75 30 0 24 5 31 28 36 15 3 32 7
37 9 34 11 45 4 45 -29z"/>
<path d="M6225 745 c0 -110 1 -115 21 -115 20 0 21 5 20 86 -1 95 10 114 66
114 39 0 51 -35 45 -127 -5 -72 -5 -73 19 -73 24 0 24 1 24 90 0 97 7 110 65
110 35 0 48 -37 43 -127 -3 -70 -3 -73 19 -73 22 0 23 3 23 93 0 85 -2 96 -23
115 -27 26 -92 30 -122 8 -16 -11 -21 -11 -33 0 -16 16 -85 19 -113 4 -13 -7
-19 -7 -19 0 0 5 -8 10 -17 10 -16 0 -18 -12 -18 -115z"/>
<path d="M6650 745 l0 -115 25 0 25 0 0 115 0 115 -25 0 -25 0 0 -115z"/>
<path d="M6760 761 c0 -55 -3 -106 -6 -115 -5 -12 0 -16 20 -16 26 0 26 0 26
81 0 104 8 119 64 119 54 0 56 -5 56 -116 0 -83 0 -84 25 -84 25 0 25 1 25 83
0 64 -4 89 -20 115 -18 29 -25 32 -66 32 -25 0 -54 -5 -65 -10 -13 -7 -19 -7
-19 0 0 5 -9 10 -20 10 -19 0 -20 -7 -20 -99z"/>
<path d="M7040 745 c0 -113 0 -115 23 -115 22 0 22 2 22 115 0 113 0 115 -22
115 -23 0 -23 -2 -23 -115z"/>
<path d="M7160 840 c-11 -11 -20 -33 -20 -50 0 -35 26 -55 85 -65 52 -8 67
-18 59 -38 -14 -36 -97 -34 -109 3 -11 34 -35 24 -35 -14 0 -40 11 -46 89 -46
76 0 103 19 99 68 -3 33 -7 38 -48 54 -25 9 -58 20 -73 23 -22 4 -28 11 -25
28 2 18 10 23 46 25 37 3 44 0 49 -17 3 -12 14 -21 25 -21 16 0 19 6 16 33
l-3 32 -67 3 c-57 2 -70 0 -88 -18z"/>
<path d="M7502 745 c0 -115 0 -115 24 -115 23 0 24 2 24 89 0 92 12 120 45
107 10 -4 15 1 15 14 0 17 -7 20 -54 20 l-54 0 0 -115z"/>
<path d="M7653 853 c-7 -2 -13 -18 -13 -34 0 -22 5 -29 19 -29 10 0 21 9 24
20 7 28 82 29 97 1 14 -28 13 -31 -16 -31 -37 0 -112 -20 -123 -34 -5 -6 -12
-23 -16 -38 -15 -57 75 -100 138 -67 16 9 22 9 25 0 2 -6 12 -11 22 -11 16 0
17 10 16 99 -2 125 -7 131 -95 130 -36 0 -72 -3 -78 -6z m137 -128 c0 -47 -54
-78 -104 -59 -10 4 -16 18 -16 35 0 23 5 30 28 35 15 3 32 7 37 9 6 2 20 4 33
4 17 1 22 -5 22 -24z"/>
<path d="M8018 745 c-3 -114 -3 -115 20 -115 22 0 22 2 22 115 0 107 -1 115
-19 115 -18 0 -20 -9 -23 -115z"/>
<path d="M8135 835 c-21 -20 -25 -34 -25 -80 0 -59 19 -109 45 -119 26 -10
114 -7 136 4 25 14 27 70 1 70 -9 0 -22 -10 -27 -22 -7 -17 -20 -24 -45 -26
-45 -3 -58 6 -66 46 l-6 32 81 0 81 0 0 40 c0 59 -26 80 -95 80 -46 0 -60 -4
-80 -25z m123 -17 c7 -7 12 -20 12 -30 0 -15 -9 -18 -60 -18 -62 0 -68 5 -50
41 12 22 78 27 98 7z"/>
<path d="M3010 795 l0 -55 54 0 c47 0 54 -3 60 -22 12 -45 7 -423 -6 -436 -7
-7 -36 -12 -65 -12 l-53 0 0 -55 0 -55 220 0 220 0 0 55 0 55 -55 0 c-50 0
-56 2 -65 26 -6 14 -10 142 -10 290 l0 264 -150 0 -150 0 0 -55z"/>
<path d="M5695 329 l0 -161 30 5 c17 3 38 0 49 -5 27 -15 105 18 117 49 5 13
9 47 9 74 0 39 -5 55 -24 74 -29 29 -91 43 -118 26 -17 -10 -18 -7 -18 44 0
50 -2 55 -22 55 -23 0 -23 -1 -23 -161z m154 -5 c11 -38 5 -90 -12 -111 -10
-14 -54 -17 -81 -7 -12 5 -16 21 -16 73 0 37 3 71 7 74 3 4 26 7 49 7 41 0 44
-2 53 -36z"/>
<path d="M6205 330 c0 -160 0 -160 22 -160 23 0 23 0 23 160 0 159 0 160 -22
160 -23 0 -23 -1 -23 -160z"/>
<path d="M6930 460 c0 -25 4 -30 23 -30 20 0 23 4 19 30 -3 21 -10 30 -23 30
-14 0 -19 -7 -19 -30z"/>
<path d="M7990 433 c0 -44 -3 -54 -12 -45 -7 7 -29 12 -49 12 -101 0 -132
-177 -39 -225 19 -10 40 -13 53 -9 12 4 39 6 60 6 l37 -2 0 160 0 160 -25 0
c-24 0 -25 -3 -25 -57z m-12 -85 c7 -7 12 -38 12 -70 0 -62 -13 -78 -62 -78
-35 0 -48 19 -48 69 0 78 7 91 49 91 20 0 42 -5 49 -12z"/>
<path d="M8310 460 c0 -25 4 -30 23 -30 20 0 23 4 19 30 -3 21 -10 30 -23 30
-14 0 -19 -7 -19 -30z"/>
<path d="M6820 425 c-5 -14 -17 -28 -25 -31 -22 -9 -18 -34 5 -34 18 0 20 -7
20 -89 0 -98 9 -115 57 -109 38 4 45 38 9 38 -26 0 -26 1 -26 80 0 79 0 80 25
80 16 0 25 6 25 15 0 9 -9 15 -25 15 -21 0 -25 5 -25 30 0 38 -26 41 -40 5z"/>
<path d="M5979 381 c-21 -17 -24 -30 -27 -99 l-4 -79 36 -23 c36 -22 83 -23
149 -4 26 8 24 74 -2 74 -11 0 -23 -9 -26 -20 -15 -46 -108 -36 -113 13 l-3
27 80 0 81 0 0 30 c0 37 -23 85 -45 94 -35 13 -103 6 -126 -13z m99 -17 c16
-5 22 -14 22 -35 0 -28 -1 -29 -56 -29 -52 0 -55 2 -52 22 2 12 14 28 28 35
29 15 28 15 58 7z"/>
<path d="M6353 393 c-29 -4 -33 -8 -33 -34 0 -34 19 -38 38 -9 16 25 87 29 96
4 10 -27 7 -30 -56 -43 -77 -17 -98 -34 -98 -77 0 -39 34 -68 78 -66 15 1 50
1 77 2 l50 1 -5 100 c-7 131 -15 138 -147 122z m95 -175 c-45 -29 -108 -20
-108 16 0 26 31 43 85 48 26 3 30 0 33 -26 2 -16 -2 -33 -10 -38z"/>
<path d="M6613 390 c-30 -12 -56 -55 -48 -79 6 -19 55 -42 118 -55 18 -4 27
-13 27 -25 0 -35 -68 -43 -100 -11 -30 30 -50 26 -50 -10 0 -31 0 -31 78 -44
41 -7 96 15 111 43 15 28 -11 81 -39 81 -11 0 -38 6 -61 13 -31 9 -39 16 -37
32 4 26 77 35 90 11 14 -26 48 -20 48 7 0 40 -78 61 -137 37z"/>
<path d="M7106 393 c-4 -4 -21 -6 -39 -5 l-32 2 0 -110 c-1 -108 0 -110 22
-110 22 0 23 3 23 83 0 94 7 107 61 107 53 0 62 -16 57 -110 -3 -77 -2 -80 19
-80 22 0 23 3 23 94 0 90 -1 96 -26 115 -26 20 -93 29 -108 14z"/>
<path d="M7353 385 c-41 -18 -58 -69 -46 -140 7 -45 12 -52 46 -69 36 -17 41
-17 78 -3 l39 15 0 -28 c0 -41 -25 -62 -69 -58 -29 2 -37 8 -39 26 -2 14 -10
22 -23 22 -16 0 -19 -7 -19 -40 l0 -40 64 0 c35 0 72 3 81 6 34 13 45 58 45
189 0 118 -1 125 -20 125 -11 0 -20 -5 -20 -12 0 -6 -7 -4 -18 5 -22 20 -56
21 -99 2z m107 -55 c14 -33 8 -93 -11 -116 -14 -16 -52 -18 -80 -4 -16 9 -19
22 -19 75 0 69 3 73 61 74 32 1 38 -3 49 -29z"/>
<path d="M7623 393 c-29 -4 -33 -8 -33 -34 0 -34 19 -38 38 -9 16 25 87 29 96
4 10 -27 7 -30 -56 -43 -77 -17 -98 -34 -98 -77 0 -39 34 -67 78 -66 15 0 50
1 77 2 l50 1 -3 102 c-2 56 -8 106 -12 111 -10 10 -91 16 -137 9z m90 -179
c-22 -17 -75 -18 -91 -2 -32 32 0 60 78 70 21 3 26 -2 28 -25 2 -19 -3 -34
-15 -43z"/>
<path d="M8438 380 c-29 -22 -40 -72 -31 -138 8 -59 47 -86 113 -77 75 10 80
13 80 51 0 27 -4 34 -20 34 -13 0 -20 -7 -20 -19 0 -20 -18 -31 -54 -31 -28 0
-52 19 -61 48 -6 22 -5 22 74 22 l81 0 0 45 c0 62 -24 85 -89 85 -33 0 -56 -6
-73 -20z m100 -16 c16 -5 22 -14 22 -35 0 -29 -1 -29 -59 -29 -57 0 -58 0 -53
26 6 35 43 50 90 38z"/>
<path d="M8693 386 c-43 -19 -56 -72 -23 -98 12 -10 40 -21 61 -24 50 -8 72
-25 63 -47 -9 -24 -68 -23 -94 3 -29 29 -50 26 -50 -9 0 -38 7 -42 78 -44 71
-2 112 20 112 59 0 42 -18 64 -51 64 -66 0 -127 47 -83 64 32 12 84 7 84 -9 0
-8 9 -15 20 -15 27 0 27 45 1 60 -27 14 -80 12 -118 -4z"/>
<path d="M6930 280 c0 -107 1 -110 23 -110 21 0 22 3 22 110 0 107 -1 110 -22
110 -22 0 -23 -3 -23 -110z"/>
<path d="M8077 378 c6 -7 25 -57 42 -110 29 -87 35 -98 56 -98 20 0 27 10 48
73 14 39 32 89 41 110 16 37 16 37 -8 37 -20 0 -27 -9 -46 -62 -12 -35 -25
-72 -30 -83 -6 -16 -13 -2 -31 60 -23 74 -27 80 -54 83 -23 3 -27 1 -18 -10z"/>
<path d="M8310 280 c0 -107 1 -110 23 -110 21 0 22 3 22 110 0 107 -1 110 -22
110 -22 0 -23 -3 -23 -110z"/>
</g>
</svg>
